<svg viewBox="0 0 103 79" fill="none" xmlns="http://www.w3.org/2000/svg">
<path d="M100.249 63.842L94.2697 32.3433C93.4373 27.9393 91.2533 23.9042 88.0214 20.7989C84.7896 17.6937 80.6705 15.6726 76.2368 15.0166C79.5907 19.5107 81.6578 24.8331 82.2164 30.4128L84.3822 51.8358C84.6974 54.7947 84.4047 57.7869 83.5222 60.6287C82.6397 63.4705 81.186 66.1021 79.2501 68.362C79.8745 71.1654 81.5869 73.606 84.0107 75.1468C86.4345 76.6876 89.3711 77.2024 92.1745 76.5781C94.9779 75.9537 97.4185 74.2413 98.9593 71.8175C100.5 69.3937 101.015 66.4571 100.391 63.6537L100.249 63.842Z" fill="#E2E2E2" stroke="#BBBBBB" stroke-width="3" stroke-linecap="round" stroke-linejoin="round"/>
<path d="M17.6178 51.8358L19.7836 30.4128C20.3422 24.8331 22.4094 19.5107 25.7632 15.0166C21.3296 15.6726 17.2105 17.6937 13.9786 20.7989C10.7468 23.9042 8.56277 27.9393 7.73031 32.3433L1.75072 63.842C1.12636 66.6454 1.64121 69.582 3.18202 72.0058C4.72282 74.4296 7.16337 76.142 9.96676 76.7664C12.7702 77.3908 15.7068 76.8759 18.1306 75.3351C20.5543 73.7943 22.2668 71.3537 22.8911 68.5504C20.9059 66.2793 19.4124 63.6217 18.5048 60.7451C17.5973 57.8684 17.2952 54.8349 17.6178 51.8358Z" fill="#E2E2E2" stroke="#BBBBBB" stroke-width="3" stroke-linecap="round" stroke-linejoin="round"/>
<path d="M62.3942 75.9426H39.6059C36.5311 75.9569 33.4875 75.3262 30.6717 74.0911C27.8558 72.8561 25.3303 71.0442 23.2582 68.7724C21.1861 66.5007 19.6136 63.8196 18.642 60.9023C17.6705 57.985 17.3216 54.8964 17.618 51.8359L19.7838 30.413C20.5343 22.6624 24.1502 15.4708 29.9239 10.2458C35.6975 5.02077 43.2132 2.13847 51.0001 2.163C58.7869 2.13847 66.3026 5.02077 72.0763 10.2458C77.8499 15.4708 81.4658 22.6624 82.2163 30.413L84.3821 51.8359C84.6785 54.8964 84.3296 57.985 83.3581 60.9023C82.3865 63.8196 80.814 66.5007 78.7419 68.7724C76.6698 71.0442 74.1443 72.8561 71.3284 74.0911C68.5126 75.3262 65.469 75.9569 62.3942 75.9426Z" fill="#F2F2F2" stroke="#BBBBBB" stroke-width="3" stroke-linecap="round" stroke-linejoin="round"/>
<path d="M51 58.9924L44.2671 51.412C44.2671 49.8511 44.8872 48.3541 45.9909 47.2504C47.0946 46.1467 48.5916 45.5266 50.1525 45.5266H51.8475C53.4084 45.5266 54.9054 46.1467 56.0091 47.2504C57.1129 48.3541 57.7329 49.8511 57.7329 51.412L51 58.9924Z" fill="#E2E2E2" stroke="#8A8A8A" stroke-width="3" stroke-linecap="round" stroke-linejoin="round"/>
<path d="M51 58.9924V75.9424" stroke="#8A8A8A" stroke-width="3" stroke-linecap="round" stroke-linejoin="round"/>
<path d="M36.1689 30.7424V34.6974" stroke="#8A8A8A" stroke-width="3" stroke-linecap="round" stroke-linejoin="round"/>
<path d="M65.8311 30.7424V34.6974" stroke="#8A8A8A" stroke-width="3" stroke-linecap="round" stroke-linejoin="round"/>
</svg>
