<svg width="90" height="90" viewBox="0 0 90 90" fill="none" xmlns="http://www.w3.org/2000/svg">
<path d="M83.7476 64.0226L79.0121 39.0773C78.3528 35.5896 76.6232 32.394 74.0637 29.9348C71.5043 27.4756 68.2422 25.8749 64.731 25.3555C67.387 28.9146 69.0241 33.1296 69.4665 37.5485L71.1817 54.5143C71.4313 56.8576 71.1995 59.2272 70.5006 61.4778C69.8017 63.7284 68.6504 65.8124 67.1174 67.6022C67.6118 69.8223 68.968 71.7551 70.8875 72.9753C72.807 74.1956 75.1326 74.6033 77.3528 74.1088C79.5729 73.6144 81.5057 72.2582 82.7259 70.3387C83.9461 68.4192 84.3539 66.0936 83.8594 63.8734L83.7476 64.0226Z" fill="#E2E2E2" stroke="#BBBBBB" stroke-width="3" stroke-linecap="round" stroke-linejoin="round"/>
<path d="M18.3081 54.5143L20.0233 37.5485C20.4657 33.1296 22.1028 28.9146 24.7589 25.3555C21.2476 25.8749 17.9855 27.4756 15.4261 29.9348C12.8666 32.394 11.137 35.5896 10.4778 39.0773L5.74224 64.0226C5.24778 66.2427 5.65551 68.5683 6.87575 70.4879C8.09599 72.4074 10.0288 73.7635 12.2489 74.258C14.469 74.7525 16.7947 74.3447 18.7142 73.1245C20.6337 71.9042 21.9899 69.9715 22.4843 67.7513C20.9121 65.9528 19.7293 63.8481 19.0106 61.57C18.2918 59.2918 18.0527 56.8894 18.3081 54.5143Z" fill="#E2E2E2" stroke="#BBBBBB" stroke-width="3" stroke-linecap="round" stroke-linejoin="round"/>
<path d="M53.7685 73.6054H35.7213C33.2863 73.6167 30.8759 73.1172 28.6459 72.1391C26.4159 71.161 24.4159 69.7261 22.7749 67.927C21.1339 66.1279 19.8885 64.0046 19.1191 61.6943C18.3497 59.3839 18.0734 56.9379 18.3081 54.5142L20.0233 37.5484C20.6177 31.4103 23.4813 25.715 28.0537 21.577C32.6261 17.4391 38.5782 15.1565 44.7449 15.1759C50.9117 15.1565 56.8637 17.4391 61.4361 21.577C66.0085 25.715 68.8721 31.4103 69.4665 37.5484L71.1817 54.5142C71.4164 56.9379 71.1401 59.3839 70.3707 61.6943C69.6013 64.0046 68.3559 66.1279 66.715 67.927C65.074 69.7261 63.0739 71.161 60.8439 72.1391C58.6139 73.1172 56.2035 73.6167 53.7685 73.6054Z" fill="#F2F2F2" stroke="#BBBBBB" stroke-width="3" stroke-linecap="round" stroke-linejoin="round"/>
<path d="M44.745 60.182L39.4128 54.1788C39.4128 52.9426 39.9039 51.7571 40.778 50.883C41.6521 50.0089 42.8376 49.5178 44.0738 49.5178H45.4161C46.6523 49.5178 47.8378 50.0089 48.7119 50.883C49.586 51.7571 50.0771 52.9426 50.0771 54.1788L44.745 60.182Z" fill="#E2E2E2" stroke="#8A8A8A" stroke-width="3" stroke-linecap="round" stroke-linejoin="round"/>
<path d="M44.7449 60.1819V73.6054" stroke="#8A8A8A" stroke-width="3" stroke-linecap="round" stroke-linejoin="round"/>
<path d="M32.9995 37.8096V40.9417" stroke="#8A8A8A" stroke-width="3" stroke-linecap="round" stroke-linejoin="round"/>
<path d="M56.4905 37.8096V40.9417" stroke="#8A8A8A" stroke-width="3" stroke-linecap="round" stroke-linejoin="round"/>
</svg>
