<svg width="43" height="43" viewBox="0 0 43 43" fill="none" xmlns="http://www.w3.org/2000/svg">
<mask id="mask0_431_933" style="mask-type:alpha" maskUnits="userSpaceOnUse" x="0" y="0" width="43" height="43">
<circle cx="21.55" cy="21.5501" r="20.95" fill="white" stroke="#DDDDDD"/>
</mask>
<g mask="url(#mask0_431_933)">
<path d="M33.2834 23.9624C33.2835 33.9221 36.1678 54.9444 40.0833 56.9136L18.6116 56.7261H0.12915C4.21892 54.8222 8.07437 33.9321 8.07446 23.9624V21.2329H33.2258L33.2834 23.9624Z" fill="#E2E2E2"/>
<path d="M33.2834 23.9624L33.7836 23.9624L33.7833 23.9519L33.2834 23.9624ZM40.0833 56.9136L40.0789 57.4136L40.3079 56.4669L40.0833 56.9136ZM18.6116 56.7261L18.6159 56.2261H18.6116V56.7261ZM0.12915 56.7261L-0.0818689 56.2728L0.12915 57.2261V56.7261ZM8.07446 23.9624L8.57446 23.9624V23.9624H8.07446ZM8.07446 21.2329V20.7329H7.57446V21.2329H8.07446ZM33.2258 21.2329L33.7257 21.2224L33.7154 20.7329H33.2258V21.2329ZM33.2834 23.9624L32.7834 23.9624C32.7835 28.9772 33.5082 36.7527 34.723 43.5227C35.3303 46.9076 36.0632 50.059 36.8958 52.4964C37.3118 53.7142 37.758 54.7696 38.2343 55.5915C38.7023 56.3991 39.2365 57.0474 39.8586 57.3603L40.0833 56.9136L40.3079 56.4669C39.9512 56.2875 39.5387 55.848 39.0995 55.0901C38.6687 54.3466 38.2471 53.3587 37.8421 52.1732C37.0327 49.8038 36.3104 46.708 35.7072 43.3461C34.5009 36.6228 33.7835 28.9073 33.7834 23.9624L33.2834 23.9624ZM40.0833 56.9136L40.0876 56.4136L18.6159 56.2261L18.6116 56.7261L18.6072 57.2261L40.0789 57.4136L40.0833 56.9136ZM18.6116 56.7261V56.2261H0.12915V56.7261V57.2261H18.6116V56.7261ZM0.12915 56.7261L0.34017 57.1794C0.98125 56.8809 1.55233 56.249 2.06536 55.4509C2.5866 54.64 3.08657 53.5958 3.56129 52.3885C4.51136 49.9722 5.38338 46.8426 6.12377 43.4763C7.60405 36.746 8.57442 28.9936 8.57446 23.9624L8.07446 23.9624L7.57446 23.9624C7.57442 28.9009 6.61701 36.5784 5.14711 43.2615C4.41239 46.602 3.55372 49.6749 2.63064 52.0226C2.16879 53.1972 1.69657 54.1753 1.22416 54.9102C0.743534 55.6579 0.299493 56.0952 -0.0818689 56.2728L0.12915 56.7261ZM8.07446 23.9624H8.57446V21.2329H8.07446H7.57446V23.9624H8.07446ZM8.07446 21.2329V21.7329H33.2258V21.2329V20.7329H8.07446V21.2329ZM33.2258 21.2329L32.7259 21.2435L32.7836 23.973L33.2834 23.9624L33.7833 23.9519L33.7257 21.2224L33.2258 21.2329Z" fill="#BBBBBB"/>
<rect x="7.89221" y="9.0166" width="26.2429" height="29.8753" rx="13.1215" fill="#F2F2F2" stroke="#BBBBBB"/>
<mask id="path-5-inside-1_431_933" fill="white">
<path d="M20.8174 6.7002C28.4484 6.7002 34.6348 12.8865 34.6348 20.5176V21.5322C34.6348 22.1595 34.5917 22.7768 34.5107 23.3818C33.4426 23.3026 32.3888 23.0978 31.3701 22.7549C29.1388 22.0036 27.3387 20.6861 26.0361 18.9951C24.2506 20.6144 21.8915 21.9995 19.0996 22.9395C14.9535 24.3353 10.6699 24.4782 7.15137 23.585C7.05162 22.9152 7 22.2297 7 21.5322V20.5176C7 12.8866 13.1864 6.70024 20.8174 6.7002Z"/>
</mask>
<path d="M20.8174 6.7002C28.4484 6.7002 34.6348 12.8865 34.6348 20.5176V21.5322C34.6348 22.1595 34.5917 22.7768 34.5107 23.3818C33.4426 23.3026 32.3888 23.0978 31.3701 22.7549C29.1388 22.0036 27.3387 20.6861 26.0361 18.9951C24.2506 20.6144 21.8915 21.9995 19.0996 22.9395C14.9535 24.3353 10.6699 24.4782 7.15137 23.585C7.05162 22.9152 7 22.2297 7 21.5322V20.5176C7 12.8866 13.1864 6.70024 20.8174 6.7002Z" fill="#E2E2E2"/>
<path d="M20.8174 6.7002L20.8174 5.7002L20.8174 5.7002L20.8174 6.7002ZM34.6348 21.5322L35.6348 21.5322V21.5322H34.6348ZM34.5107 23.3818L34.4368 24.3791L35.3769 24.4488L35.5019 23.5144L34.5107 23.3818ZM31.3701 22.7549L31.051 23.7026L31.051 23.7026L31.3701 22.7549ZM26.0361 18.9951L26.8283 18.3849L26.167 17.5264L25.3644 18.2544L26.0361 18.9951ZM19.0996 22.9395L19.4187 23.8872L19.4187 23.8872L19.0996 22.9395ZM7.15137 23.585L6.16228 23.7323L6.26031 24.3905L6.9053 24.5542L7.15137 23.585ZM7 21.5322L6 21.5322L6 21.5322L7 21.5322ZM20.8174 6.7002V7.7002C27.8961 7.7002 33.6348 13.4388 33.6348 20.5176H34.6348H35.6348C35.6348 12.3342 29.0007 5.7002 20.8174 5.7002V6.7002ZM34.6348 20.5176H33.6348V21.5322H34.6348H35.6348V20.5176H34.6348ZM34.6348 21.5322L33.6348 21.5322C33.6348 22.1136 33.5948 22.6866 33.5196 23.2492L34.5107 23.3818L35.5019 23.5144C35.5885 22.8669 35.6348 22.2053 35.6348 21.5322L34.6348 21.5322ZM34.5107 23.3818L34.5847 22.3846C33.5951 22.3112 32.624 22.1219 31.6892 21.8072L31.3701 22.7549L31.051 23.7026C32.1536 24.0738 33.2902 24.2941 34.4368 24.3791L34.5107 23.3818ZM31.3701 22.7549L31.6892 21.8072C29.6441 21.1185 28.0092 19.9178 26.8283 18.3849L26.0361 18.9951L25.2439 19.6054C26.6683 21.4543 28.6335 22.8886 31.051 23.7026L31.3701 22.7549ZM26.0361 18.9951L25.3644 18.2544C23.6908 19.7721 21.4552 21.0912 18.7805 21.9917L19.0996 22.9395L19.4187 23.8872C22.3278 22.9078 24.8103 21.4568 26.7079 19.7359L26.0361 18.9951ZM19.0996 22.9395L18.7806 21.9917C14.8028 23.3309 10.7156 23.4581 7.39743 22.6157L7.15137 23.585L6.9053 24.5542C10.6242 25.4983 15.1042 25.3397 19.4187 23.8872L19.0996 22.9395ZM7.15137 23.585L8.14046 23.4376C8.04796 22.8166 8 22.1803 8 21.5322L7 21.5322L6 21.5322C6 22.2791 6.05528 23.0139 6.16228 23.7323L7.15137 23.585ZM7 21.5322H8V20.5176H7H6V21.5322H7ZM7 20.5176H8C8 13.4389 13.7387 7.70024 20.8174 7.7002L20.8174 6.7002L20.8174 5.7002C12.6341 5.70025 6 12.3343 6 20.5176H7Z" fill="#BBBBBB" mask="url(#path-5-inside-1_431_933)"/>
<rect x="16.4731" y="24.8618" width="1.8162" height="3.63239" rx="0.908098" fill="#8A8A8A"/>
<rect x="23.7381" y="24.8618" width="1.8162" height="3.63239" rx="0.908098" fill="#8A8A8A"/>
<path d="M18.2894 32.1265C19.6515 33.9427 22.3758 33.9427 23.738 32.1265" stroke="#8A8A8A" stroke-linecap="round" stroke-linejoin="round"/>
<path d="M14.6569 42.5698L15.565 51.6508L20.1055 46.6975" stroke="#CCCCCC" stroke-linecap="round" stroke-linejoin="round"/>
<path d="M27.3703 42.5698L26.4622 51.6508L21.9217 46.6975" stroke="#CCCCCC" stroke-linecap="round" stroke-linejoin="round"/>
</g>
</svg>
