<svg width="38" height="38" viewBox="0 0 38 38" fill="none" xmlns="http://www.w3.org/2000/svg">
<mask id="mask0_796_2503" style="mask-type:alpha" maskUnits="userSpaceOnUse" x="0" y="0" width="38" height="39">
<circle cx="19" cy="19.9014" r="18.5" fill="white" stroke="#DDDDDD"/>
</mask>
<g mask="url(#mask0_796_2503)">
<path d="M29.9224 22.3823C29.9225 31.2377 32.486 49.9301 35.9673 51.6802L16.8774 51.5132H0.444824C4.08101 49.8203 7.50818 31.2464 7.5083 22.3823V19.9556H29.8716L29.9224 22.3823Z" fill="#E2E2E2"/>
<path d="M29.9224 22.3823L30.4225 22.3823L30.4223 22.3719L29.9224 22.3823ZM35.9673 51.6802L35.9629 52.1802L36.1919 51.2334L35.9673 51.6802ZM16.8774 51.5132L16.8818 51.0132H16.8774V51.5132ZM0.444824 51.5132L0.233793 51.0599L0.444824 52.0132V51.5132ZM7.5083 22.3823L8.0083 22.3823V22.3823H7.5083ZM7.5083 19.9556V19.4556H7.0083V19.9556H7.5083ZM29.8716 19.9556L30.3715 19.9451L30.3612 19.4556H29.8716V19.9556ZM29.9224 22.3823L29.4224 22.3823C29.4224 26.845 30.067 33.7619 31.1472 39.784C31.6873 42.7949 32.3394 45.6 33.081 47.771C33.4514 48.8555 33.8494 49.7976 34.2754 50.5327C34.6931 51.2535 35.1748 51.8414 35.7427 52.1269L35.9673 51.6802L36.1919 51.2334C35.8894 51.0814 35.5295 50.7024 35.1407 50.0313C34.7601 49.3746 34.3867 48.5001 34.0273 47.4477C33.309 45.3449 32.6675 42.5953 32.1315 39.6074C31.0597 33.632 30.4224 26.7751 30.4224 22.3823L29.9224 22.3823ZM35.9673 51.6802L35.9717 51.1802L16.8818 51.0132L16.8774 51.5132L16.8731 52.0132L35.9629 52.1802L35.9673 51.6802ZM16.8774 51.5132V51.0132H0.444824V51.5132V52.0132H16.8774V51.5132ZM0.444824 51.5132L0.655856 51.9665C1.24024 51.6944 1.75501 51.1218 2.21292 50.4093C2.67904 49.6842 3.12507 48.7521 3.54782 47.6768C4.39396 45.5246 5.16992 42.7388 5.82842 39.7443C7.14494 33.7577 8.00824 26.8607 8.0083 22.3823L7.5083 22.3823L7.0083 22.3823C7.00824 26.768 6.1579 33.5901 4.85176 39.5296C4.19892 42.4982 3.4363 45.2274 2.61716 47.3109C2.20728 48.3534 1.78899 49.2194 1.3717 49.8686C0.946194 50.5307 0.558455 50.9088 0.233793 51.0599L0.444824 51.5132ZM7.5083 22.3823H8.0083V19.9556H7.5083H7.0083V22.3823H7.5083ZM7.5083 19.9556V20.4556H29.8716V19.9556V19.4556H7.5083V19.9556ZM29.8716 19.9556L29.3717 19.966L29.4225 22.3928L29.9224 22.3823L30.4223 22.3719L30.3715 19.9451L29.8716 19.9556Z" fill="#BBBBBB"/>
<rect x="7.40112" y="9.14941" width="23.2217" height="26.4513" rx="11.6108" fill="#F2F2F2" stroke="#BBBBBB"/>
<mask id="path-5-inside-1_796_2503" fill="white">
<path d="M19.0615 7.03467C25.7226 7.03477 31.1221 12.4351 31.1221 19.0962V20.4458C31.1221 20.9272 31.0929 21.4019 31.0381 21.8687C30.0976 21.7996 29.1701 21.6166 28.2734 21.3091C26.3258 20.6412 24.7552 19.4696 23.6182 17.9663C22.0595 19.4063 19.9998 20.6373 17.5625 21.4731C13.9324 22.718 10.1811 22.8426 7.10449 22.0405C7.03556 21.5187 7.00001 20.9864 7 20.4458V19.0962C7 12.435 12.4004 7.03467 19.0615 7.03467Z"/>
</mask>
<path d="M19.0615 7.03467C25.7226 7.03477 31.1221 12.4351 31.1221 19.0962V20.4458C31.1221 20.9272 31.0929 21.4019 31.0381 21.8687C30.0976 21.7996 29.1701 21.6166 28.2734 21.3091C26.3258 20.6412 24.7552 19.4696 23.6182 17.9663C22.0595 19.4063 19.9998 20.6373 17.5625 21.4731C13.9324 22.718 10.1811 22.8426 7.10449 22.0405C7.03556 21.5187 7.00001 20.9864 7 20.4458V19.0962C7 12.435 12.4004 7.03467 19.0615 7.03467Z" fill="#E2E2E2"/>
<path d="M19.0615 7.03467L19.0615 6.03467H19.0615V7.03467ZM31.1221 20.4458L32.1221 20.4458V20.4458H31.1221ZM31.0381 21.8687L30.9648 22.866L31.9195 22.9361L32.0312 21.9854L31.0381 21.8687ZM28.2734 21.3091L27.9491 22.255L27.9491 22.255L28.2734 21.3091ZM23.6182 17.9663L24.4157 17.363L23.75 16.483L22.9396 17.2318L23.6182 17.9663ZM17.5625 21.4731L17.8869 22.4191L17.8869 22.4191L17.5625 21.4731ZM7.10449 22.0405L6.11311 22.1715L6.20122 22.8385L6.85221 23.0082L7.10449 22.0405ZM7 20.4458L6 20.4458L6 20.4458L7 20.4458ZM19.0615 7.03467L19.0615 8.03467C25.1702 8.03476 30.1221 12.9873 30.1221 19.0962H31.1221H32.1221C32.1221 11.8829 26.275 6.03477 19.0615 6.03467L19.0615 7.03467ZM31.1221 19.0962H30.1221V20.4458H31.1221H32.1221V19.0962H31.1221ZM31.1221 20.4458L30.1221 20.4458C30.1221 20.8869 30.0954 21.3226 30.0449 21.7519L31.0381 21.8687L32.0312 21.9854C32.0905 21.4813 32.1221 20.9676 32.1221 20.4458L31.1221 20.4458ZM31.0381 21.8687L31.1113 20.8713C30.2519 20.8082 29.4091 20.6414 28.5978 20.3631L28.2734 21.3091L27.9491 22.255C28.9311 22.5918 29.9434 22.791 30.9648 22.866L31.0381 21.8687ZM28.2734 21.3091L28.5978 20.3632C26.8393 19.7601 25.4332 18.7082 24.4157 17.363L23.6182 17.9663L22.8206 18.5696C24.0773 20.2309 25.8123 21.5223 27.9491 22.255L28.2734 21.3091ZM23.6182 17.9663L22.9396 17.2318C21.4925 18.5687 19.5566 19.7321 17.2381 20.5272L17.5625 21.4731L17.8869 22.4191C20.4429 21.5425 22.6266 20.2439 24.2968 18.7008L23.6182 17.9663ZM17.5625 21.4731L17.2381 20.5272C13.7792 21.7134 10.2287 21.8216 7.35677 21.0729L7.10449 22.0405L6.85221 23.0082C10.1336 23.8637 14.0857 23.7226 17.8869 22.4191L17.5625 21.4731ZM7.10449 22.0405L8.09588 21.9096C8.03267 21.4311 8.00001 20.9425 8 20.4458L7 20.4458L6 20.4458C6.00001 21.0303 6.03845 21.6064 6.11311 22.1715L7.10449 22.0405ZM7 20.4458H8V19.0962H7H6V20.4458H7ZM7 19.0962H8C8 12.9873 12.9526 8.03467 19.0615 8.03467V7.03467V6.03467C11.8481 6.03467 6 11.8827 6 19.0962H7Z" fill="#BBBBBB" mask="url(#path-5-inside-1_796_2503)"/>
<rect x="14.9751" y="23.1821" width="1.61478" height="3.22956" rx="0.80739" fill="#8A8A8A"/>
<rect x="21.4347" y="23.1821" width="1.61478" height="3.22956" rx="0.80739" fill="#8A8A8A"/>
<path d="M16.5898 29.6411C17.8009 31.2559 20.2231 31.2559 21.4342 29.6411" stroke="#8A8A8A" stroke-linecap="round" stroke-linejoin="round"/>
</g>
</svg>
