<svg viewBox="0 0 24 24" fill="current" xmlns="http://www.w3.org/2000/svg">
<path d="M6.66667 6L5 7.66667" stroke="current" stroke-width="1.66667" stroke-linecap="round"/>
<path d="M18.3333 6L20 7.66667" stroke="current" stroke-width="1.66667" stroke-linecap="round"/>
<path d="M12.5001 6C16.1818 6.00018 19.1661 8.9852 19.1661 12.667C19.1659 16.3486 16.1817 19.3328 12.5001 19.333C8.81827 19.333 5.83324 16.3487 5.83307 12.667C5.83307 8.98509 8.81816 6 12.5001 6ZM14.6876 9.93262C14.3282 9.64525 13.8032 9.70317 13.5157 10.0625L12.3262 11.5488L10.462 10.3066C10.0791 10.0516 9.56199 10.1544 9.3067 10.5371C9.05148 10.92 9.15536 11.438 9.53815 11.6934L11.879 13.2539C12.3285 13.5535 12.9331 13.4599 13.2706 13.0381L14.8174 11.1035C15.1048 10.7442 15.0466 10.2202 14.6876 9.93262Z" fill="current" stroke="transparent"/>
</svg>
