<svg viewBox="0 0 100 100" fill="none" xmlns="http://www.w3.org/2000/svg">
<g clip-path="url(#clip0_493_2172)">
<path d="M74.2188 50C74.2226 55.6993 72.2149 61.2172 68.5494 65.5814C64.884 69.9456 59.7959 72.8763 54.1816 73.857C48.5672 74.8377 42.7869 73.8056 37.8589 70.9425C32.931 68.0794 29.1715 63.569 27.2429 58.2059L13.3904 69.2878C17.6977 77.4758 24.6243 83.9844 33.0642 87.7745C41.5041 91.5645 50.9705 92.4174 59.9519 90.197C68.9334 87.9765 76.9118 82.8107 82.6133 75.5245C88.3148 68.2383 91.4106 59.2518 91.4063 50" fill="#00AC47"/>
<path d="M74.2189 50C74.2157 53.8531 73.2919 57.6497 71.5244 61.0735C69.7569 64.4974 67.1969 67.4493 64.0576 69.6834L77.7526 80.6394C82.047 76.773 85.4814 72.0478 87.8334 66.7697C90.1855 61.4917 91.4027 55.7784 91.4064 50" fill="#4285F4"/>
<path d="M25.7812 50C25.7872 47.2005 26.2819 44.4235 27.2428 41.794L13.3903 30.7122C10.2406 36.6533 8.59375 43.2755 8.59375 50C8.59375 56.7244 10.2406 63.3466 13.3903 69.2878L27.2428 58.2059C26.2819 55.5765 25.7872 52.7995 25.7812 50Z" fill="#FFBA00"/>
<path d="M50.0001 25.7813C55.1246 25.7827 60.1149 27.4204 64.2438 30.4557L76.9313 18.6141C72.2215 14.5533 66.6555 11.6087 60.6486 9.99979C54.6416 8.39092 48.3489 8.15942 42.24 9.32255C36.1311 10.4857 30.3637 13.0134 25.3683 16.7171C20.3729 20.4208 16.2784 25.2049 13.3904 30.7122L27.2429 41.7941C28.9323 37.1109 32.0229 33.0615 36.0946 30.1965C40.1663 27.3316 45.0215 25.7899 50.0001 25.7813Z" fill="#EA4435"/>
<path d="M91.4062 46.875V50L84.375 60.9375H51.5625V43.75H88.2812C89.1101 43.75 89.9049 44.0792 90.491 44.6653C91.077 45.2513 91.4062 46.0462 91.4062 46.875Z" fill="#4285F4"/>
</g>
<defs>
<clipPath id="clip0_493_2172">
<rect width="100" height="100" fill="white"/>
</clipPath>
</defs>
</svg>
