<svg viewBox="0 0 100 100" fill="none" xmlns="http://www.w3.org/2000/svg">
<path d="M50.3633 6C58.9268 6 66.8471 7.66664 74.1242 10.9999C81.4014 14.3332 87.1545 18.8658 91.3832 24.5977C95.6121 30.3293 97.7266 36.5814 97.7266 43.3539C97.7266 50.1262 95.6121 56.3871 91.3832 62.1367C87.1545 67.8861 81.4102 72.4275 74.1506 75.7607C66.891 79.0939 58.9619 80.7607 50.3633 80.7607C47.6498 80.7607 44.848 80.5666 41.9584 80.1787C29.4127 88.891 22.7348 93.3002 21.9242 93.4059C21.5365 93.5471 21.1664 93.5293 20.8141 93.3531C20.673 93.2473 20.5674 93.1061 20.4969 92.9297C20.4264 92.7533 20.3912 92.5947 20.3912 92.4535V92.242C20.6027 90.8662 22.2061 85.1346 25.2016 75.0465C18.4001 71.6604 12.9995 67.1719 8.99971 61.5811C4.9999 55.9904 3 49.9146 3 43.3539C3 36.5814 5.11443 30.3293 9.3433 24.5977C13.5722 18.8658 19.3252 14.3332 26.6023 10.9999C33.8795 7.66664 41.7998 6 50.3633 6Z" fill="black"/>
</svg>
