<svg width="49" height="49" viewBox="0 0 49 49" fill="none" xmlns="http://www.w3.org/2000/svg">
<g filter="url(#filter0_d_733_26578)">
<circle cx="24.5" cy="20.5" r="20.25" fill="white" stroke="#D9D9D9" stroke-width="0.5"/>
<g clip-path="url(#clip0_733_26578)">
<path d="M24.625 28.3397C28.8855 28.3397 32.3393 24.8859 32.3393 20.6254C32.3393 16.3649 28.8855 12.9111 24.625 12.9111C20.3645 12.9111 16.9107 16.3649 16.9107 20.6254C16.9107 24.8859 20.3645 28.3397 24.625 28.3397Z" stroke="#FF8400" stroke-width="2" stroke-linecap="round" stroke-linejoin="round"/>
<path d="M24.625 21.4828C25.0984 21.4828 25.4821 21.0991 25.4821 20.6257C25.4821 20.1523 25.0984 19.7686 24.625 19.7686C24.1516 19.7686 23.7678 20.1523 23.7678 20.6257C23.7678 21.0991 24.1516 21.4828 24.625 21.4828Z" stroke="#FF8400" stroke-width="2" stroke-linecap="round" stroke-linejoin="round"/>
<path d="M24.625 12.911V9.48242" stroke="#FF8400" stroke-width="2" stroke-linecap="round" stroke-linejoin="round"/>
<path d="M24.625 31.7684V28.3398" stroke="#FF8400" stroke-width="2" stroke-linecap="round" stroke-linejoin="round"/>
<path d="M32.3392 20.625H35.7678" stroke="#FF8400" stroke-width="2" stroke-linecap="round" stroke-linejoin="round"/>
<path d="M13.4821 20.625H16.9107" stroke="#FF8400" stroke-width="2" stroke-linecap="round" stroke-linejoin="round"/>
</g>
</g>
<defs>
<filter id="filter0_d_733_26578" x="0" y="0" width="49" height="49" filterUnits="userSpaceOnUse" color-interpolation-filters="sRGB">
<feFlood flood-opacity="0" result="BackgroundImageFix"/>
<feColorMatrix in="SourceAlpha" type="matrix" values="0 0 0 0 0 0 0 0 0 0 0 0 0 0 0 0 0 0 127 0" result="hardAlpha"/>
<feOffset dy="4"/>
<feGaussianBlur stdDeviation="2"/>
<feComposite in2="hardAlpha" operator="out"/>
<feColorMatrix type="matrix" values="0 0 0 0 0 0 0 0 0 0 0 0 0 0 0 0 0 0 0.1 0"/>
<feBlend mode="normal" in2="BackgroundImageFix" result="effect1_dropShadow_733_26578"/>
<feBlend mode="normal" in="SourceGraphic" in2="effect1_dropShadow_733_26578" result="shape"/>
</filter>
<clipPath id="clip0_733_26578">
<rect width="24" height="24" fill="white" transform="translate(12.625 8.625)"/>
</clipPath>
</defs>
</svg>
